<svg width="177" height="32" viewBox="0 0 177 32" version="1.1" xmlns="http://www.w3.org/2000/svg" xmlns:xlink="http://www.w3.org/1999/xlink">
<title>BerzerkerMoviesLogo</title>
<desc>Created using Figma</desc>
<g id="Canvas" transform="matrix(0.5 0 0 0.5 588.5 -149)">
<g id="BerzerkerMoviesLogo" filter="url(#filter0_d)">
<g id="Berzerkers" filter="url(#filter1_d)">
<use xlink:href="#path0_fill" transform="translate(-1173 298)" fill="#F5F5F5"/>
</g>
<g id="Movies" filter="url(#filter2_d)">
<use xlink:href="#path1_fill" transform="matrix(1 0 0.0003491 1 -949.709 298)" fill="#DEBFC6"/>
</g>
</g>
</g>
<defs>
<filter id="filter0_d" filterUnits="userSpaceOnUse" x="-1177" y="298" width="354" height="63" color-interpolation-filters="sRGB">
<feFlood flood-opacity="0" result="BackgroundImageFix"/>
<feColorMatrix in="SourceAlpha" type="matrix" values="0 0 0 0 0 0 0 0 0 0 0 0 0 0 0 0 0 0 255 0"/>
<feOffset dx="0" dy="4"/>
<feGaussianBlur stdDeviation="2"/>
<feColorMatrix type="matrix" values="0 0 0 0 0 0 0 0 0 0 0 0 0 0 0 0 0 0 0.25 0"/>
<feBlend mode="normal" in2="BackgroundImageFix" result="effect1_dropShadow"/>
<feBlend mode="normal" in="SourceGraphic" in2="effect1_dropShadow" result="shape"/>
</filter>
<filter id="filter1_d" filterUnits="userSpaceOnUse" x="-1175" y="307" width="222" height="49" color-interpolation-filters="sRGB">
<feFlood flood-opacity="0" result="BackgroundImageFix"/>
<feColorMatrix in="SourceAlpha" type="matrix" values="0 0 0 0 0 0 0 0 0 0 0 0 0 0 0 0 0 0 255 0"/>
<feOffset dx="0" dy="4"/>
<feGaussianBlur stdDeviation="2"/>
<feColorMatrix type="matrix" values="0 0 0 0 0 0 0 0 0 0 0 0 0 0 0 0 0 0 0.25 0"/>
<feBlend mode="normal" in2="BackgroundImageFix" result="effect1_dropShadow"/>
<feBlend mode="normal" in="SourceGraphic" in2="effect1_dropShadow" result="shape"/>
</filter>
<filter id="filter2_d" filterUnits="userSpaceOnUse" x="-950" y="307" width="124" height="49" color-interpolation-filters="sRGB">
<feFlood flood-opacity="0" result="BackgroundImageFix"/>
<feColorMatrix in="SourceAlpha" type="matrix" values="0 0 0 0 0 0 0 0 0 0 0 0 0 0 0 0 0 0 255 0"/>
<feOffset dx="0" dy="4"/>
<feGaussianBlur stdDeviation="2"/>
<feColorMatrix type="matrix" values="0 0 0 0 0 0 0 0 0 0 0 0 0 0 0 0 0 0 0.25 0"/>
<feBlend mode="normal" in2="BackgroundImageFix" result="effect1_dropShadow"/>
<feBlend mode="normal" in="SourceGraphic" in2="effect1_dropShadow" result="shape"/>
</filter>
<path id="path0_fill" d="M 2.928 10.12L 12.528 10.12C 16.208 10.12 19.024 10.872 20.976 12.376C 22.928 13.88 23.904 16.456 23.904 20.104C 23.904 22.472 23.424 24.328 22.464 25.672C 21.504 26.984 20.112 27.784 18.288 28.072C 22.768 28.936 25.008 32.136 25.008 37.672C 25.008 41.416 24.096 44.248 22.272 46.168C 20.448 48.056 17.744 49 14.16 49L 2.928 49L 2.928 10.12ZM 12.432 26.008C 14.48 26.008 15.872 25.56 16.608 24.664C 17.376 23.736 17.76 22.248 17.76 20.2C 17.76 18.216 17.264 16.872 16.272 16.168C 15.312 15.432 13.696 15.064 11.424 15.064L 9.984 15.064L 9.984 26.008L 12.432 26.008ZM 12.72 44.008C 14.8 44.008 16.24 43.512 17.04 42.52C 17.84 41.528 18.24 39.896 18.24 37.624C 18.24 35.288 17.792 33.592 16.896 32.536C 16.032 31.448 14.56 30.904 12.48 30.904L 9.984 30.904L 9.984 44.008L 12.72 44.008ZM 27.2468 10.12L 43.5668 10.12L 43.5668 15.112L 34.3028 15.112L 34.3028 26.296L 41.5988 26.296L 41.5988 31.24L 34.3028 31.24L 34.3028 44.152L 43.6628 44.152L 43.6628 49L 27.2468 49L 27.2468 10.12ZM 45.378 10.12L 54.738 10.12C 58.834 10.12 61.89 10.904 63.906 12.472C 65.922 14.008 66.93 16.664 66.93 20.44C 66.93 22.904 66.562 24.92 65.826 26.488C 65.122 28.024 63.89 29.144 62.13 29.848L 67.554 49L 60.45 49L 55.794 31.192L 52.434 31.192L 52.434 49L 45.378 49L 45.378 10.12ZM 54.69 26.776C 56.706 26.776 58.13 26.312 58.962 25.384C 59.826 24.456 60.258 22.936 60.258 20.824C 60.258 18.776 59.874 17.288 59.106 16.36C 58.37 15.432 57.026 14.968 55.074 14.968L 52.434 14.968L 52.434 26.776L 54.69 26.776ZM 68.5883 44.44L 79.0043 15.016L 69.1163 15.016L 69.1163 10.12L 86.1563 10.12L 86.1563 13.768L 75.3083 44.152L 86.2043 44.152L 86.2043 49L 68.5883 49L 68.5883 44.44ZM 87.8749 10.12L 104.195 10.12L 104.195 15.112L 94.9309 15.112L 94.9309 26.296L 102.227 26.296L 102.227 31.24L 94.9309 31.24L 94.9309 44.152L 104.291 44.152L 104.291 49L 87.8749 49L 87.8749 10.12ZM 106.006 10.12L 115.366 10.12C 119.462 10.12 122.518 10.904 124.534 12.472C 126.55 14.008 127.558 16.664 127.558 20.44C 127.558 22.904 127.19 24.92 126.454 26.488C 125.75 28.024 124.518 29.144 122.758 29.848L 128.182 49L 121.078 49L 116.422 31.192L 113.062 31.192L 113.062 49L 106.006 49L 106.006 10.12ZM 115.318 26.776C 117.334 26.776 118.758 26.312 119.59 25.384C 120.454 24.456 120.886 22.936 120.886 20.824C 120.886 18.776 120.502 17.288 119.734 16.36C 118.998 15.432 117.654 14.968 115.702 14.968L 113.062 14.968L 113.062 26.776L 115.318 26.776ZM 130.512 10.12L 137.568 10.12L 137.568 27.208L 145.296 10.12L 152.064 10.12L 144.624 27.448L 152.832 49L 145.776 49L 139.296 31.336L 137.568 34.264L 137.568 49L 130.512 49L 130.512 10.12ZM 153.659 10.12L 169.979 10.12L 169.979 15.112L 160.715 15.112L 160.715 26.296L 168.011 26.296L 168.011 31.24L 160.715 31.24L 160.715 44.152L 170.075 44.152L 170.075 49L 153.659 49L 153.659 10.12ZM 171.791 10.12L 181.151 10.12C 185.247 10.12 188.303 10.904 190.319 12.472C 192.335 14.008 193.343 16.664 193.343 20.44C 193.343 22.904 192.975 24.92 192.239 26.488C 191.535 28.024 190.303 29.144 188.543 29.848L 193.967 49L 186.863 49L 182.207 31.192L 178.847 31.192L 178.847 49L 171.791 49L 171.791 10.12ZM 181.103 26.776C 183.119 26.776 184.543 26.312 185.375 25.384C 186.239 24.456 186.671 22.936 186.671 20.824C 186.671 18.776 186.287 17.288 185.519 16.36C 184.783 15.432 183.439 14.968 181.487 14.968L 178.847 14.968L 178.847 26.776L 181.103 26.776ZM 205.995 49.528C 202.475 49.528 199.835 48.536 198.075 46.552C 196.347 44.568 195.403 41.608 195.243 37.672L 201.339 36.472C 201.435 38.936 201.819 40.824 202.491 42.136C 203.195 43.416 204.283 44.056 205.755 44.056C 206.843 44.056 207.643 43.736 208.155 43.096C 208.699 42.424 208.971 41.528 208.971 40.408C 208.971 38.872 208.619 37.576 207.915 36.52C 207.243 35.432 206.171 34.248 204.699 32.968L 199.803 28.696C 198.299 27.416 197.163 26.04 196.395 24.568C 195.659 23.096 195.291 21.336 195.291 19.288C 195.291 16.248 196.171 13.896 197.931 12.232C 199.723 10.536 202.187 9.688 205.323 9.688C 208.683 9.688 211.083 10.648 212.523 12.568C 213.995 14.456 214.843 17.016 215.067 20.248L 208.971 21.304C 208.875 19.192 208.571 17.608 208.059 16.552C 207.579 15.464 206.619 14.92 205.179 14.92C 204.155 14.92 203.355 15.272 202.779 15.976C 202.203 16.648 201.915 17.512 201.915 18.568C 201.915 19.816 202.155 20.872 202.635 21.736C 203.147 22.568 203.963 23.464 205.083 24.424L 209.931 28.696C 211.755 30.264 213.179 31.944 214.203 33.736C 215.227 35.528 215.739 37.608 215.739 39.976C 215.739 41.832 215.323 43.48 214.491 44.92C 213.691 46.36 212.555 47.496 211.083 48.328C 209.611 49.128 207.915 49.528 205.995 49.528Z"/>
<path id="path1_fill" d="M 5.37432 10.12L 9.02232 10.12L 16.7023 43.864L 24.5263 10.12L 28.1743 10.12L 29.1343 49L 26.1103 49L 25.3423 18.04L 17.9023 49L 15.5503 49L 8.20632 18.088L 7.43832 49L 4.41432 49L 5.37432 10.12ZM 42.4101 49.48C 38.7621 49.48 36.1701 48.44 34.6341 46.36C 33.1301 44.28 32.3781 41.336 32.3781 37.528L 32.3781 21.4C 32.3781 17.624 33.1461 14.744 34.6821 12.76C 36.2181 10.744 38.7941 9.736 42.4101 9.736C 45.9621 9.736 48.5061 10.744 50.0421 12.76C 51.5781 14.776 52.3461 17.656 52.3461 21.4L 52.3461 37.576C 52.3461 41.384 51.5941 44.328 50.0901 46.408C 48.5861 48.456 46.0261 49.48 42.4101 49.48ZM 42.4101 46.552C 44.7781 46.552 46.4101 45.864 47.3061 44.488C 48.2021 43.08 48.6501 41.032 48.6501 38.344L 48.6501 20.728C 48.6501 18.04 48.2021 16.024 47.3061 14.68C 46.4421 13.336 44.8101 12.664 42.4101 12.664C 39.9781 12.664 38.3141 13.336 37.4181 14.68C 36.5221 15.992 36.0741 18.008 36.0741 20.728L 36.0741 38.344C 36.0741 41.064 36.5221 43.112 37.4181 44.488C 38.3141 45.864 39.9781 46.552 42.4101 46.552ZM 53.7568 10.12L 57.2608 10.12L 64.6048 42.328L 71.5168 10.12L 74.9728 10.12L 66.1888 49L 62.8768 49L 53.7568 10.12ZM 77.1932 10.12L 80.8412 10.12L 80.8412 49L 77.1932 49L 77.1932 10.12ZM 85.2898 10.12L 99.3538 10.12L 99.3538 12.952L 88.9858 12.952L 88.9858 27.544L 97.4338 27.544L 97.4338 30.232L 88.9858 30.232L 88.9858 46.264L 99.4498 46.264L 99.4498 49L 85.2898 49L 85.2898 10.12ZM 110.319 49.48C 107.279 49.48 104.959 48.552 103.359 46.696C 101.759 44.808 100.847 42.216 100.623 38.92L 103.839 37.96C 104.127 40.712 104.735 42.824 105.663 44.296C 106.623 45.768 108.191 46.504 110.367 46.504C 114.015 46.504 115.839 44.632 115.839 40.888C 115.839 39.288 115.455 37.88 114.687 36.664C 113.951 35.448 112.751 34.056 111.087 32.488L 104.223 25.912C 102.975 24.76 102.063 23.56 101.487 22.312C 100.943 21.032 100.671 19.624 100.671 18.088C 100.671 15.432 101.455 13.384 103.023 11.944C 104.623 10.472 106.767 9.736 109.455 9.736C 112.335 9.736 114.543 10.504 116.079 12.04C 117.615 13.576 118.511 16.088 118.767 19.576L 115.647 20.392C 115.455 17.768 114.895 15.816 113.967 14.536C 113.071 13.256 111.567 12.616 109.455 12.616C 107.791 12.616 106.463 13.048 105.471 13.912C 104.479 14.776 103.983 16.056 103.983 17.752C 103.983 18.84 104.191 19.816 104.607 20.68C 105.023 21.544 105.727 22.456 106.719 23.416L 113.583 29.896C 115.343 31.56 116.719 33.272 117.711 35.032C 118.735 36.76 119.247 38.632 119.247 40.648C 119.247 43.464 118.431 45.64 116.799 47.176C 115.167 48.712 113.007 49.48 110.319 49.48Z"/>
</defs>
</svg>
