<svg width="69" height="67" viewBox="0 0 69 67" version="1.1" xmlns="http://www.w3.org/2000/svg" xmlns:xlink="http://www.w3.org/1999/xlink">
<title>LOGO</title>
<desc>Created using Figma</desc>
<g id="Canvas" transform="translate(232 184)">
<g id="LOGO">
<g id="Movies">
<use xlink:href="#path0_fill" transform="matrix(-0.000705027 1 -1 -0.000264027 -163.955 -180.989)" fill="#D2ADB5"/>
</g>
<g id="BZRK">
<use xlink:href="#path1_fill" transform="translate(-232 -184)" fill="#FFFFFF"/>
</g>
</g>
</g>
<defs>
<path id="path0_fill" d="M 2.26983 12.18L 4.71183 12.18L 7.85783 26.634L 11.0258 12.18L 13.4458 12.18L 13.7758 30L 11.7738 30L 11.5758 17.064L 8.56183 30L 7.15383 30L 4.16183 17.064L 3.96383 30L 1.93983 30L 2.26983 12.18ZM 21.0613 30.198C 19.3159 30.198 18.0619 29.7067 17.2993 28.724C 16.5513 27.7267 16.1773 26.2893 16.1773 24.412L 16.1773 17.658C 16.1773 15.81 16.5586 14.4093 17.3213 13.456C 18.0839 12.5027 19.3306 12.026 21.0613 12.026C 22.7919 12.026 24.0313 12.51 24.7793 13.478C 25.5419 14.4313 25.9233 15.8247 25.9233 17.658L 25.9233 24.434C 25.9233 26.282 25.5419 27.7047 24.7793 28.702C 24.0166 29.6993 22.7773 30.198 21.0613 30.198ZM 21.0613 28.24C 21.9853 28.24 22.6086 27.9687 22.9313 27.426C 23.2539 26.8833 23.4153 26.062 23.4153 24.962L 23.4153 17.152C 23.4153 16.0667 23.2539 15.2673 22.9313 14.754C 22.6086 14.226 21.9853 13.962 21.0613 13.962C 20.1226 13.962 19.4919 14.226 19.1693 14.754C 18.8466 15.2673 18.6853 16.0667 18.6853 17.152L 18.6853 24.962C 18.6853 26.062 18.8466 26.8833 19.1693 27.426C 19.4919 27.9687 20.1226 28.24 21.0613 28.24ZM 27.4866 12.18L 29.8186 12.18L 32.6346 25.314L 35.3186 12.18L 37.5846 12.18L 33.6466 30L 31.4686 30L 27.4866 12.18ZM 39.6061 12.18L 42.0481 12.18L 42.0481 30L 39.6061 30L 39.6061 12.18ZM 44.9311 12.18L 51.8391 12.18L 51.8391 14.028L 47.4171 14.028L 47.4171 19.924L 51.0031 19.924L 51.0031 21.684L 47.4171 21.684L 47.4171 28.218L 51.8831 28.218L 51.8831 30L 44.9311 30L 44.9311 12.18ZM 58.0921 30.198C 56.5961 30.198 55.4521 29.736 54.6601 28.812C 53.8827 27.888 53.4501 26.6193 53.3621 25.006L 55.5621 24.412C 55.6354 25.556 55.8554 26.48 56.2221 27.184C 56.6034 27.888 57.2267 28.24 58.0921 28.24C 58.7374 28.24 59.2214 28.064 59.5441 27.712C 59.8814 27.3453 60.0501 26.8247 60.0501 26.15C 60.0501 25.4167 59.8961 24.808 59.5881 24.324C 59.2801 23.84 58.7887 23.3047 58.1141 22.718L 55.1221 20.078C 54.5207 19.55 54.0807 18.9853 53.8021 18.384C 53.5381 17.768 53.4061 17.02 53.4061 16.14C 53.4061 14.8347 53.7801 13.8227 54.5281 13.104C 55.2761 12.3853 56.2954 12.026 57.5861 12.026C 58.9941 12.026 60.0574 12.4 60.7761 13.148C 61.4947 13.896 61.9274 15.0547 62.0741 16.624L 59.9621 17.196C 59.8887 16.1547 59.6834 15.3553 59.3461 14.798C 59.0234 14.226 58.4367 13.94 57.5861 13.94C 56.9554 13.94 56.4714 14.1087 56.1341 14.446C 55.7967 14.7687 55.6281 15.2527 55.6281 15.898C 55.6281 16.426 55.7161 16.8733 55.8921 17.24C 56.0681 17.592 56.3687 17.9513 56.7941 18.318L 59.8081 20.958C 60.5854 21.6473 61.2014 22.3953 61.6561 23.202C 62.1254 24.0087 62.3601 24.9253 62.3601 25.952C 62.3601 27.2573 61.9641 28.2913 61.1721 29.054C 60.3801 29.8167 59.3534 30.198 58.0921 30.198Z"/>
<path id="path1_fill" d="M 2.196 3.84L 9.396 3.84C 12.156 3.84 14.268 4.404 15.732 5.532C 17.196 6.66 17.928 8.592 17.928 11.328C 17.928 13.104 17.568 14.496 16.848 15.504C 16.128 16.488 15.084 17.088 13.716 17.304C 17.076 17.952 18.756 20.352 18.756 24.504C 18.756 27.312 18.072 29.436 16.704 30.876C 15.336 32.292 13.308 33 10.62 33L 2.196 33L 2.196 3.84ZM 9.324 15.756C 10.86 15.756 11.904 15.42 12.456 14.748C 13.032 14.052 13.32 12.936 13.32 11.4C 13.32 9.912 12.948 8.904 12.204 8.376C 11.484 7.824 10.272 7.548 8.568 7.548L 7.488 7.548L 7.488 15.756L 9.324 15.756ZM 9.54 29.256C 11.1 29.256 12.18 28.884 12.78 28.14C 13.38 27.396 13.68 26.172 13.68 24.468C 13.68 22.716 13.344 21.444 12.672 20.652C 12.024 19.836 10.92 19.428 9.36 19.428L 7.488 19.428L 7.488 29.256L 9.54 29.256ZM 19.4631 29.58L 27.2751 7.512L 19.8591 7.512L 19.8591 3.84L 32.6391 3.84L 32.6391 6.576L 24.5031 29.364L 32.6751 29.364L 32.6751 33L 19.4631 33L 19.4631 29.58ZM 2.196 35.84L 9.216 35.84C 12.288 35.84 14.58 36.428 16.092 37.604C 17.604 38.756 18.36 40.748 18.36 43.58C 18.36 45.428 18.084 46.94 17.532 48.116C 17.004 49.268 16.08 50.108 14.76 50.636L 18.828 65L 13.5 65L 10.008 51.644L 7.488 51.644L 7.488 65L 2.196 65L 2.196 35.84ZM 9.18 48.332C 10.692 48.332 11.76 47.984 12.384 47.288C 13.032 46.592 13.356 45.452 13.356 43.868C 13.356 42.332 13.068 41.216 12.492 40.52C 11.94 39.824 10.932 39.476 9.468 39.476L 7.488 39.476L 7.488 48.332L 9.18 48.332ZM 20.5757 35.84L 25.8677 35.84L 25.8677 48.656L 31.6637 35.84L 36.7397 35.84L 31.1597 48.836L 37.3157 65L 32.0237 65L 27.1637 51.752L 25.8677 53.948L 25.8677 65L 20.5757 65L 20.5757 35.84Z"/>
</defs>
</svg>
