<svg width="46" height="52" viewBox="0 0 46 52" version="1.1" xmlns="http://www.w3.org/2000/svg" xmlns:xlink="http://www.w3.org/1999/xlink">
<title>SquareLogo</title>
<desc>Created using Figma</desc>
<g id="Canvas" transform="matrix(0.5 0 0 0.5 589 -191.5)">
<g id="SquareLogo">
<g id="Berzerkers" filter="url(#filter0_d)">
<use xlink:href="#path0_fill" transform="translate(-1177 383)" fill="#F5F5F5"/>
</g>
<g id="Movies" filter="url(#filter1_d)">
<use xlink:href="#path1_fill" transform="matrix(6.03146e-17 -1 1 -0.000225349 -1121 478.01)" fill="#D2ADB5"/>
</g>
</g>
</g>
<defs>
<filter id="filter0_d" filterUnits="userSpaceOnUse" x="-1178" y="391" width="58" height="95" color-interpolation-filters="sRGB">
<feFlood flood-opacity="0" result="BackgroundImageFix"/>
<feColorMatrix in="SourceAlpha" type="matrix" values="0 0 0 0 0 0 0 0 0 0 0 0 0 0 0 0 0 0 255 0"/>
<feOffset dx="0" dy="4"/>
<feGaussianBlur stdDeviation="2"/>
<feColorMatrix type="matrix" values="0 0 0 0 0 0 0 0 0 0 0 0 0 0 0 0 0 0 0.25 0"/>
<feBlend mode="darken" in2="BackgroundImageFix" result="effect1_dropShadow"/>
<feBlend mode="normal" in="SourceGraphic" in2="effect1_dropShadow" result="shape"/>
</filter>
<filter id="filter1_d" filterUnits="userSpaceOnUse" x="-1124" y="392" width="38" height="92" color-interpolation-filters="sRGB">
<feFlood flood-opacity="0" result="BackgroundImageFix"/>
<feColorMatrix in="SourceAlpha" type="matrix" values="0 0 0 0 0 0 0 0 0 0 0 0 0 0 0 0 0 0 255 0"/>
<feOffset dx="0" dy="4"/>
<feGaussianBlur stdDeviation="2"/>
<feColorMatrix type="matrix" values="0 0 0 0 0 0 0 0 0 0 0 0 0 0 0 0 0 0 0.25 0"/>
<feBlend mode="normal" in2="BackgroundImageFix" result="effect1_dropShadow"/>
<feBlend mode="normal" in="SourceGraphic" in2="effect1_dropShadow" result="shape"/>
</filter>
<path id="path0_fill" d="M 3.111 8.69L 13.311 8.69C 17.221 8.69 20.213 9.489 22.287 11.087C 24.361 12.685 25.398 15.422 25.398 19.298C 25.398 21.814 24.888 23.786 23.868 25.214C 22.848 26.608 21.369 27.458 19.431 27.764C 24.191 28.682 26.571 32.082 26.571 37.964C 26.571 41.942 25.602 44.951 23.664 46.991C 21.726 48.997 18.853 50 15.045 50L 3.111 50L 3.111 8.69ZM 13.209 25.571C 15.385 25.571 16.864 25.095 17.646 24.143C 18.462 23.157 18.87 21.576 18.87 19.4C 18.87 17.292 18.343 15.864 17.289 15.116C 16.269 14.334 14.552 13.943 12.138 13.943L 10.608 13.943L 10.608 25.571L 13.209 25.571ZM 13.515 44.696C 15.725 44.696 17.255 44.169 18.105 43.115C 18.955 42.061 19.38 40.327 19.38 37.913C 19.38 35.431 18.904 33.629 17.952 32.507C 17.034 31.351 15.47 30.773 13.26 30.773L 10.608 30.773L 10.608 44.696L 13.515 44.696ZM 27.5727 45.155L 38.6397 13.892L 28.1337 13.892L 28.1337 8.69L 46.2387 8.69L 46.2387 12.566L 34.7127 44.849L 46.2897 44.849L 46.2897 50L 27.5727 50L 27.5727 45.155ZM 3.111 53.69L 13.056 53.69C 17.408 53.69 20.655 54.523 22.797 56.189C 24.939 57.821 26.01 60.643 26.01 64.655C 26.01 67.273 25.619 69.415 24.837 71.081C 24.089 72.713 22.78 73.903 20.91 74.651L 26.673 95L 19.125 95L 14.178 76.079L 10.608 76.079L 10.608 95L 3.111 95L 3.111 53.69ZM 13.005 71.387C 15.147 71.387 16.66 70.894 17.544 69.908C 18.462 68.922 18.921 67.307 18.921 65.063C 18.921 62.887 18.513 61.306 17.697 60.32C 16.915 59.334 15.487 58.841 13.413 58.841L 10.608 58.841L 10.608 71.387L 13.005 71.387ZM 29.1489 53.69L 36.6459 53.69L 36.6459 71.846L 44.8569 53.69L 52.0479 53.69L 44.1429 72.101L 52.8639 95L 45.3669 95L 38.4819 76.232L 36.6459 79.343L 36.6459 95L 29.1489 95L 29.1489 53.69Z"/>
<path id="path1_fill" d="M 2.94 1.65L 5.6 1.65L 11.2 26.255L 16.905 1.65L 19.565 1.65L 20.265 30L 18.06 30L 17.5 7.425L 12.075 30L 10.36 30L 5.005 7.46L 4.445 30L 2.24 30L 2.94 1.65ZM 29.9452 30.35C 27.2852 30.35 25.3952 29.5917 24.2752 28.075C 23.1786 26.5583 22.6302 24.4117 22.6302 21.635L 22.6302 9.875C 22.6302 7.12167 23.1902 5.02167 24.3102 3.575C 25.4302 2.105 27.3086 1.37 29.9452 1.37C 32.5352 1.37 34.3902 2.105 35.5102 3.575C 36.6302 5.045 37.1902 7.145 37.1902 9.875L 37.1902 21.67C 37.1902 24.4467 36.6419 26.5933 35.5452 28.11C 34.4486 29.6033 32.5819 30.35 29.9452 30.35ZM 29.9452 28.215C 31.6719 28.215 32.8619 27.7133 33.5152 26.71C 34.1686 25.6833 34.4952 24.19 34.4952 22.23L 34.4952 9.385C 34.4952 7.425 34.1686 5.955 33.5152 4.975C 32.8852 3.995 31.6952 3.505 29.9452 3.505C 28.1719 3.505 26.9586 3.995 26.3052 4.975C 25.6519 5.93167 25.3252 7.40167 25.3252 9.385L 25.3252 22.23C 25.3252 24.2133 25.6519 25.7067 26.3052 26.71C 26.9586 27.7133 28.1719 28.215 29.9452 28.215ZM 38.2189 1.65L 40.7739 1.65L 46.1289 25.135L 51.1689 1.65L 53.6889 1.65L 47.2839 30L 44.8689 30L 38.2189 1.65ZM 55.3079 1.65L 57.9679 1.65L 57.9679 30L 55.3079 30L 55.3079 1.65ZM 61.2117 1.65L 71.4667 1.65L 71.4667 3.715L 63.9067 3.715L 63.9067 14.355L 70.0667 14.355L 70.0667 16.315L 63.9067 16.315L 63.9067 28.005L 71.5367 28.005L 71.5367 30L 61.2117 30L 61.2117 1.65ZM 79.462 30.35C 77.2454 30.35 75.5537 29.6733 74.387 28.32C 73.2204 26.9433 72.5554 25.0533 72.392 22.65L 74.737 21.95C 74.947 23.9567 75.3904 25.4967 76.067 26.57C 76.767 27.6433 77.9104 28.18 79.497 28.18C 82.157 28.18 83.487 26.815 83.487 24.085C 83.487 22.9183 83.207 21.8917 82.647 21.005C 82.1104 20.1183 81.2354 19.1033 80.022 17.96L 75.017 13.165C 74.107 12.325 73.442 11.45 73.022 10.54C 72.6254 9.60667 72.427 8.58 72.427 7.46C 72.427 5.52333 72.9987 4.03 74.142 2.98C 75.3087 1.90667 76.872 1.37 78.832 1.37C 80.932 1.37 82.542 1.93 83.662 3.05C 84.782 4.17 85.4354 6.00167 85.622 8.545L 83.347 9.14C 83.207 7.22667 82.7987 5.80333 82.122 4.87C 81.4687 3.93667 80.372 3.47 78.832 3.47C 77.6187 3.47 76.6504 3.785 75.927 4.415C 75.2037 5.045 74.842 5.97833 74.842 7.215C 74.842 8.00833 74.9937 8.72 75.297 9.35C 75.6004 9.98 76.1137 10.645 76.837 11.345L 81.842 16.07C 83.1254 17.2833 84.1287 18.5317 84.852 19.815C 85.5987 21.075 85.972 22.44 85.972 23.91C 85.972 25.9633 85.377 27.55 84.187 28.67C 82.997 29.79 81.422 30.35 79.462 30.35Z"/>
</defs>
</svg>